<svg id="Layer_1" data-name="Layer 1" xmlns="http://www.w3.org/2000/svg" viewBox="0 0 121.06 122.88"><defs><style>.cls-1{fill-rule:evenodd;}</style></defs><title>database-server</title><path class="cls-1" d="M18,27.16c8.25,2.76,19.74,4.46,32.5,4.46S74.75,29.92,83,27.16c7.24-2.42,11.72-5.35,11.72-8.21S90.24,13.16,83,10.74C74.75,8,63.26,6.28,50.51,6.28S26.26,8,18,10.74C2.65,15.87,2.22,21.89,18,27.16Zm103.05,94c0-.14,0-.26,0-.39V51.37c0-.13,0-.27,0-.39a2.14,2.14,0,0,0-.59-1.11,2.12,2.12,0,0,0-1.5-.63H78.9a2.15,2.15,0,0,0-2.13,2.13v69.37a2.08,2.08,0,0,0,.63,1.5,2,2,0,0,0,1.5.63H119a2.12,2.12,0,0,0,1.5-.63,2.28,2.28,0,0,0,.58-1.12Zm-16.47-15a6.34,6.34,0,0,1-12.41.71l6.78-4.2,5.63,3.49ZM113.2,61.4v5.33H84.67V61.4Zm0,14.74v5.33H99.14L99,81l-.18.44H84.67V76.14ZM6.35,48.73c.57,2.67,4.92,5.36,11.66,7.61,8.25,2.76,19.74,4.46,32.5,4.46,4.45,0,8.75-.21,12.81-.6v6.32c-4.08.38-8.38.58-12.8.58-13.4,0-25.59-1.83-34.48-4.8a39.61,39.61,0,0,1-9.67-4.56V76.57c.57,2.67,4.92,5.36,11.66,7.61,8.25,2.75,19.74,4.46,32.5,4.46,4.44,0,8.74-.21,12.79-.59v6.29c-4.09.37-8.39.57-12.81.57-13.4,0-25.59-1.83-34.48-4.81a39.61,39.61,0,0,1-9.67-4.55v18.83c.57,2.67,4.92,5.36,11.66,7.61,8.25,2.75,19.74,4.46,32.5,4.46,4.45,0,8.75-.21,12.8-.6v4.89c0,.47,0,.94.07,1.41-4.11.38-8.43.58-12.87.58-13.4,0-25.59-1.83-34.48-4.81-4.69-1.56-16-6.7-16-12.85v-2Q0,61,0,19C0,13.08,6.12,8.11,16,4.8,24.91,1.83,37.11,0,50.51,0S76.09,1.83,85,4.81s14.89,7.4,15.88,12.59a3.06,3.06,0,0,1,.18,1.06V35.79H94.75V28.48A39.71,39.71,0,0,1,85,33.09c-8.89,3-21.08,4.81-34.47,4.81S24.92,36.07,16,33.09a39.61,39.61,0,0,1-9.67-4.55V48.73Z"/></svg>