<?xml version="1.0" encoding="utf-8"?><svg version="1.1" id="Layer_1" xmlns="http://www.w3.org/2000/svg" xmlns:xlink="http://www.w3.org/1999/xlink" x="0px" y="0px" viewBox="0 0 115.28 122.88" style="enable-background:new 0 0 115.28 122.88" xml:space="preserve"><style type="text/css">.st0{fill-rule:evenodd;clip-rule:evenodd;}</style><g><path class="st0" d="M25.38,57h64.88V37.34H69.59c-2.17,0-5.19-1.17-6.62-2.6c-1.43-1.43-2.3-4.01-2.3-6.17V7.64l0,0H8.15 c-0.18,0-0.32,0.09-0.41,0.18C7.59,7.92,7.55,8.05,7.55,8.24v106.45c0,0.14,0.09,0.32,0.18,0.41c0.09,0.14,0.28,0.18,0.41,0.18 c22.78,0,58.09,0,81.51,0c0.18,0,0.17-0.09,0.27-0.18c0.14-0.09,0.33-0.28,0.33-0.41v-11.16H25.38c-4.14,0-7.56-3.4-7.56-7.56 V64.55C17.82,60.4,21.22,57,25.38,57L25.38,57z M29.99,68.15h12.65c2.76,0,4.82,0.65,6.19,1.96c1.37,1.31,2.06,3.18,2.06,5.6 c0,2.49-0.75,4.43-2.25,5.83c-1.49,1.4-3.78,2.1-6.85,2.1h-4.17v9.11h-7.63V68.15L29.99,68.15z M37.62,78.67h1.87 c1.48,0,2.51-0.26,3.11-0.77c0.6-0.51,0.89-1.16,0.89-1.96c0-0.77-0.26-1.43-0.78-1.96c-0.52-0.54-1.49-0.81-2.92-0.81h-2.18V78.67 L37.62,78.67z M53.8,68.15h7.6v8.59h8.32v-8.59h7.63v24.61h-7.63v-9.97H61.4v9.97h-7.6V68.15L53.8,68.15z M81.28,68.15h12.65 c2.76,0,4.82,0.65,6.19,1.96c1.37,1.31,2.06,3.18,2.06,5.6c0,2.49-0.75,4.43-2.25,5.83c-1.5,1.4-3.78,2.1-6.85,2.1h-4.17v9.11 h-7.63V68.15L81.28,68.15z M88.91,78.67h1.87c1.48,0,2.51-0.26,3.11-0.77c0.6-0.51,0.89-1.16,0.89-1.96c0-0.77-0.26-1.43-0.78-1.96 c-0.52-0.54-1.49-0.81-2.92-0.81h-2.18V78.67L88.91,78.67z M97.79,57h9.93c4.16,0,7.56,3.41,7.56,7.56v31.42 c0,4.15-3.41,7.56-7.56,7.56h-9.93v13.55c0,1.61-0.65,3.04-1.7,4.1c-1.06,1.06-2.49,1.7-4.1,1.7c-29.44,0-56.59,0-86.18,0 c-1.61,0-3.04-0.64-4.1-1.7c-1.06-1.06-1.7-2.49-1.7-4.1V5.85c0-1.61,0.65-3.04,1.7-4.1c1.06-1.06,2.53-1.7,4.1-1.7h58.72 C64.66,0,64.8,0,64.94,0c0.64,0,1.29,0.28,1.75,0.69h0.09c0.09,0.05,0.14,0.09,0.23,0.18l29.99,30.36c0.51,0.51,0.88,1.2,0.88,1.98 c0,0.23-0.05,0.41-0.09,0.65V57L97.79,57z M67.52,27.97V8.94l21.43,21.7H70.19c-0.74,0-1.38-0.32-1.89-0.78 C67.84,29.4,67.52,28.71,67.52,27.97L67.52,27.97z"/></g></svg>